<svg class="shrink-0" height="40" width="40" fill="none" viewBox="0 0 60 60" xmlns="http://www.w3.org/2000/svg"><g stroke="#000" stroke-linecap="round" stroke-linejoin="round" stroke-width="2"><path d="M47.32 25v10M34.33 47.5l4.33-2.5 4.33-2.5M25.67 47.5L21.339 45l-4.33-2.5M12.68 25v10M17.009 17.5L21.34 15l4.33-2.5M34.33 12.5l4.33 2.5 4.33 2.5"></path><path d="M30 55a5 5 0 1 0 0-10 5 5 0 0 0 0 10zM30 15a5 5 0 1 0 0-10 5 5 0 0 0 0 10zM30 35a5 5 0 1 0 0-10 5 5 0 0 0 0 10zM47.5 25a5 5 0 1 0 0-10 5 5 0 0 0 0 10zM47.5 45a5 5 0 1 0 0-10 5 5 0 0 0 0 10zM12.5 25a5 5 0 1 0 0-10 5 5 0 0 0 0 10zM12.5 45a5 5 0 1 0 0-10 5 5 0 0 0 0 10z"></path></g></svg>